HIERARCHY
ROOT Hips
{
	OFFSET 0.00000 0.00000 0.00000
	CHANNELS 6 Xposition Yposition Zposition Zrotation Yrotation Xrotation 
	JOINT LHipJoint
	{
		OFFSET 0 0 0
		CHANNELS 3 Zrotation Yrotation Xrotation
		JOINT LeftUpLeg
		{
			OFFSET 1.28858 -1.83292 1.03970
			CHANNELS 3 Zrotation Yrotation Xrotation
			JOINT LeftLeg
			{
				OFFSET 2.47846 -6.80952 0.00000
				CHANNELS 3 Zrotation Yrotation Xrotation
				JOINT LeftFoot
				{
					OFFSET 2.75274 -7.56311 0.00000
					CHANNELS 3 Zrotation Yrotation Xrotation
					JOINT LeftToeBase
					{
						OFFSET 0.12848 -0.35301 1.68223
						CHANNELS 3 Zrotation Yrotation Xrotation
						End Site
						{
							OFFSET 0.00000 -0.00000 0.87311
						}
					}
				}
			}
		}
	}
	JOINT RHipJoint
	{
		OFFSET 0 0 0
		CHANNELS 3 Zrotation Yrotation Xrotation
		JOINT RightUpLeg
		{
			OFFSET -1.31183 -1.83292 1.03970
			CHANNELS 3 Zrotation Yrotation Xrotation
			JOINT RightLeg
			{
				OFFSET -2.44740 -6.72417 0.00000
				CHANNELS 3 Zrotation Yrotation Xrotation
				JOINT RightFoot
				{
					OFFSET -2.67343 -7.34519 0.00000
					CHANNELS 3 Zrotation Yrotation Xrotation
					JOINT RightToeBase
					{
						OFFSET -0.16914 -0.46471 1.77626
						CHANNELS 3 Zrotation Yrotation Xrotation
						End Site
						{
							OFFSET -0.00000 -0.00000 0.92777
						}
					}
				}
			}
		}
	}
	JOINT LowerBack
	{
		OFFSET 0 0 0
		CHANNELS 3 Zrotation Yrotation Xrotation
		JOINT Spine
		{
			OFFSET 0.01249 2.14252 0.03842
			CHANNELS 3 Zrotation Yrotation Xrotation
			JOINT Spine1
			{
				OFFSET -0.02957 2.14199 -0.03751
				CHANNELS 3 Zrotation Yrotation Xrotation
				JOINT Neck
				{
					OFFSET 0 0 0
					CHANNELS 3 Zrotation Yrotation Xrotation
					JOINT Neck1
					{
						OFFSET -0.01678 1.65709 -0.05476
						CHANNELS 3 Zrotation Yrotation Xrotation
						JOINT Head
						{
							OFFSET 0.07912 1.58331 -0.11843
							CHANNELS 3 Zrotation Yrotation Xrotation
							End Site
							{
								OFFSET 0.03298 1.73940 -0.04271
							}
						}
					}
				}
				JOINT LeftShoulder
				{
					OFFSET 0 0 0
					CHANNELS 3 Zrotation Yrotation Xrotation
					JOINT LeftArm
					{
						OFFSET 3.39556 1.16496 0.08673
						CHANNELS 3 Zrotation Yrotation Xrotation
						JOINT LeftForeArm
						{
							OFFSET 5.23910 -0.00000 -0.00000
							CHANNELS 3 Zrotation Yrotation Xrotation
							JOINT LeftHand
							{
								OFFSET 3.31467 -0.00000 0.00000
								CHANNELS 3 Zrotation Yrotation Xrotation
								JOINT LeftFingerBase
								{
									OFFSET 0 0 0
									CHANNELS 3 Zrotation Yrotation Xrotation
									JOINT LeftHandIndex1
									{
										OFFSET 0.96590 -0.00000 0.00000
										CHANNELS 3 Zrotation Yrotation Xrotation
										End Site
										{
											OFFSET 0.77873 -0.00000 0.00000
										}
									}
								}
								JOINT LThumb
								{
									OFFSET 0 0 0
									CHANNELS 3 Zrotation Yrotation Xrotation
									End Site
									{
										OFFSET 0.79062 -0.00000 0.79062
									}
								}
							}
						}
					}
				}
				JOINT RightShoulder
				{
					OFFSET 0 0 0
					CHANNELS 3 Zrotation Yrotation Xrotation
					JOINT RightArm
					{
						OFFSET -3.27193 1.31331 0.33940
						CHANNELS 3 Zrotation Yrotation Xrotation
						JOINT RightForeArm
						{
							OFFSET -5.30252 -0.00000 0.00000
							CHANNELS 3 Zrotation Yrotation Xrotation
							JOINT RightHand
							{
								OFFSET -3.67875 -0.00000 0.00000
								CHANNELS 3 Zrotation Yrotation Xrotation
								JOINT RightFingerBase
								{
									OFFSET 0 0 0
									CHANNELS 3 Zrotation Yrotation Xrotation
									JOINT RightHandIndex1
									{
										OFFSET -0.59481 -0.00000 0.00000
										CHANNELS 3 Zrotation Yrotation Xrotation
										End Site
										{
											OFFSET -0.47955 -0.00000 0.00000
										}
									}
								}
								JOINT RThumb
								{
									OFFSET 0 0 0
									CHANNELS 3 Zrotation Yrotation Xrotation
									End Site
									{
										OFFSET -0.48687 -0.00000 0.48687
									}
								}
							}
						}
					}
				}
			}
		}
	}
}
MOTION
Frames: 15
Frame Time: .0083333
8.9154 17.9595 -32.2245 0 0 0 0 0 0 -21 0 0 0 0 0 0 0 0 0 0 0 0 0 0 21 0 0 0 0 0 0 0 0 0 0 0 0 0 0 0 0 0 0 0 0 0 0 -16 0 0 21 0 0 11 0 0 0 -8 0 0 0 0 0 0 0 0 0 0 0 0 0 0 0 0 0 0 0 0 8 0 0 0 0 0 0 0 0 0 0 0 0 0 0 0 0 0
8.9154 17.9595 -32.2245 -50.5833 -89.4515 55.8450 0.0000 0.0000 0.0000 -7.2306 -6.4667 10.4931 0.0220 -0.9579 -2.6331 2.6095 -0.7795 -30.3924 2.6824 10.1623 29.5039 0.0000 0.0000 0.0000 14.2680 12.7930 12.9992 -0.0294 1.1078 -3.0454 -0.3182 -20.1178 -30.6814 -0.0007 -0.1706 0.4687 5.6481 0.7157 -6.5213 -3.4139 0.5657 -3.3899 -6.7116 0.1498 0.2290 0.9373 -0.2985 -4.4999 5.0979 -0.8420 5.4925 1.4440 -0.2662 2.5491 -0.0000 0.0000 0.0000 -0.8009 -3.3007 -6.2362 11.1265 -18.4819 -1.8158 -0.0000 0.0000 -7.9193 7.8182 -5.6766 -0.7781 -7.1250 0.0000 -0.0000 -13.9584 24.2534 7.1994 -0.0000 0.0000 0.0000 20.5498 -2.6988 -28.1131 -10.7779 17.9470 -1.7068 0.0000 0.0000 20.0870 -9.7011 -49.4449 7.4006 7.1250 -0.0000 -0.0000 56.1280 -73.4390 -40.8979
8.9173 17.9606 -32.2252 -68.3294 -89.2048 73.6294 0.0000 0.0000 0.0000 -6.7227 -6.2556 10.3824 0.0219 -0.9552 -2.6256 2.6025 -1.5405 -30.1405 3.1166 10.8814 31.8810 0.0000 0.0000 0.0000 14.6985 13.0567 13.0472 -0.0290 1.0993 -3.0220 -0.3745 -20.1677 -31.1177 -0.0008 -0.1849 0.5079 4.5372 0.7005 -6.8021 -2.3488 0.6000 -3.2283 -4.9457 0.2062 0.5455 0.5107 -0.3474 -4.6271 4.3218 -0.8107 5.4113 1.2674 -0.2761 2.5389 -0.0000 0.0000 0.0000 -2.4485 -3.7685 -7.6323 10.9516 -18.2141 -1.7608 -0.0000 0.0000 -6.8490 7.9114 -5.9153 -0.8205 -7.1250 0.0000 -0.0000 -13.8670 24.0185 7.2273 -0.0000 0.0000 0.0000 18.9802 -2.8108 -27.8515 -10.7782 17.9475 -1.7070 0.0000 0.0000 19.4682 -9.4762 -49.5148 7.2351 7.1250 -0.0000 -0.0000 56.5046 -73.3903 -41.1629
8.9160 17.9607 -32.2252 -69.4145 -89.2164 74.7393 0.0000 0.0000 0.0000 -6.7610 -6.3416 10.3929 0.0216 -0.9497 -2.6103 2.6134 -1.4889 -30.2192 3.0809 10.8249 31.6915 0.0000 0.0000 0.0000 14.6949 13.0997 13.0530 -0.0295 1.1083 -3.0468 -0.3589 -20.1655 -31.0125 -0.0017 -0.2649 0.7279 3.7141 0.6282 -7.0346 -1.7535 0.5437 -3.1030 -3.8597 0.1996 0.7890 0.2005 -0.3307 -4.7245 3.8637 -0.7282 5.3625 1.1762 -0.2515 2.5363 0.0000 -0.0000 0.0000 -3.4240 -3.9746 -8.7680 10.8206 -18.0127 -1.7200 -0.0000 0.0000 -6.1077 7.6950 -5.8033 -0.7827 -7.1250 0.0000 -0.0000 -14.0354 24.1310 7.2826 0.0000 -0.0000 0.0000 18.1266 -2.5818 -28.2873 -10.7560 17.9133 -1.7001 0.0000 0.0000 19.7773 -9.3454 -49.5476 7.1379 7.1250 -0.0000 -0.0000 56.6999 -73.3581 -41.2932
8.9137 17.9603 -32.2239 -68.2291 -89.2754 73.5618 0.0000 0.0000 0.0000 -6.9009 -6.4774 10.4619 0.0218 -0.9528 -2.6190 2.6357 -1.4540 -30.3605 3.0483 10.7728 31.5174 0.0000 0.0000 0.0000 14.5714 12.9858 13.0113 -0.0300 1.1174 -3.0720 -0.3510 -20.0329 -30.7941 -0.0033 -0.3698 1.0160 3.5161 0.5536 -7.1768 -1.6600 0.4523 -3.0299 -3.6570 0.1608 0.9332 0.1696 -0.2799 -4.8065 3.7620 -0.6517 5.3784 1.1519 -0.2154 2.5544 -0.0000 0.0000 0.0000 -3.5536 -3.7885 -8.7749 10.8242 -18.0183 -1.7212 -0.0000 0.0000 -6.4631 7.6718 -5.5472 -0.7460 -7.1250 0.0000 -0.0000 -14.0781 24.3819 7.2216 -0.0000 0.0000 0.0000 18.0316 -2.2204 -28.8126 -10.7200 17.8579 -1.6891 0.0000 0.0000 20.2929 -9.3518 -49.4550 7.1331 7.1250 -0.0000 -0.0000 56.4203 -73.3153 -41.0143
8.9137 17.9621 -32.2248 -71.3976 -89.2774 76.7714 0.0000 0.0000 0.0000 -6.8557 -6.3725 10.3649 0.0216 -0.9499 -2.6109 2.6100 -1.2051 -30.2754 2.9355 10.5899 30.9091 0.0000 0.0000 0.0000 14.5686 13.0127 12.9411 -0.0295 1.1085 -3.0473 -0.4425 -19.9859 -31.3390 -0.0065 -0.5202 1.4293 3.3150 0.5449 -7.3142 -1.5428 0.4487 -2.9869 -3.4214 0.1643 1.0519 0.1870 -0.2893 -4.8744 3.6542 -0.6600 5.4198 1.1142 -0.2209 2.5799 -0.0000 -0.0000 0.0000 -3.6619 -3.7066 -8.3683 10.8419 -18.0455 -1.7266 -0.0000 0.0000 -7.0776 7.9126 -5.4954 -0.7626 -7.1250 0.0000 -0.0000 -13.9076 24.4300 7.1129 -0.0000 -0.0000 0.0000 17.9220 -2.1520 -29.0629 -10.7272 17.8689 -1.6913 0.0000 0.0000 20.4438 -9.5642 -49.3323 7.2831 7.1250 -0.0000 -0.0000 55.8971 -73.3330 -40.5954
8.9137 17.9647 -32.2272 -75.8853 -89.2269 81.3077 0.0000 0.0000 0.0000 -6.7366 -6.2606 10.2625 0.0217 -0.9509 -2.6137 2.5851 -0.9499 -30.1985 2.8175 10.3935 30.2607 0.0000 0.0000 0.0000 14.6920 13.1834 12.9334 -0.0290 1.0995 -3.0227 -0.7083 -19.8930 -32.8991 -0.0276 -1.0729 2.9493 2.2857 0.5523 -7.6811 -0.7651 0.5120 -2.7914 -2.0287 0.2152 1.4493 -0.3529 -0.3768 -5.0378 3.2554 -0.7025 5.3512 1.0781 -0.2617 2.5882 0.0000 -0.0000 0.0000 -4.8752 -4.1739 -9.2922 10.6968 -17.8220 -1.6819 -0.0000 0.0000 -6.3685 8.0749 -5.7289 -0.8114 -7.1250 0.0000 -0.0000 -13.7662 24.1991 7.1123 0.0000 -0.0000 0.0000 16.7834 -2.4138 -28.9771 -10.7915 17.9680 -1.7110 0.0000 0.0000 19.9797 -9.7637 -49.4023 7.4440 7.1250 -0.0000 -0.0000 55.9540 -73.4411 -40.7546
8.9126 17.9658 -32.2282 -79.5843 -89.1519 85.0112 0.0000 0.0000 0.0000 -6.6467 -6.3249 10.3335 0.0224 -0.9659 -2.6550 2.6156 -1.1904 -30.3125 2.9440 10.6038 30.9550 0.0000 0.0000 0.0000 14.8250 13.2637 12.9616 -0.0287 1.0941 -3.0078 -0.8510 -19.8386 -33.6906 -0.0405 -1.2997 3.5738 2.3046 0.5818 -7.6453 -0.7172 0.5488 -2.8422 -1.9870 0.2317 1.3787 -0.3966 -0.3850 -5.0332 3.3533 -0.7194 5.4190 1.1173 -0.2677 2.6117 -0.0000 0.0000 0.0000 -4.9718 -4.1828 -9.2096 10.7220 -17.8608 -1.6897 -0.0000 0.0000 -6.4838 7.9891 -5.7167 -0.8009 -7.1250 0.0000 -0.0000 -13.8300 24.2122 7.1429 -0.0000 0.0000 0.0000 16.7511 -2.5081 -28.8225 -10.8096 17.9958 -1.7166 0.0000 0.0000 19.8330 -9.9155 -49.4429 7.5652 7.1250 -0.0000 -0.0000 55.9608 -73.5173 -40.8389
8.9115 17.9667 -32.2294 -81.8955 -89.1170 87.3306 0.0000 0.0000 0.0000 -6.6051 -6.3869 10.3854 0.0228 -0.9748 -2.6793 2.6484 -1.4436 -30.4384 3.0678 10.8041 31.6219 0.0000 0.0000 0.0000 14.8589 13.2436 12.9327 -0.0284 1.0884 -2.9920 -0.8311 -19.8371 -33.5718 -0.0364 -1.2315 3.3861 2.3152 0.6163 -7.6294 -0.7180 0.5933 -2.8865 -1.9901 0.2522 1.3266 -0.4329 -0.4122 -4.9038 3.4885 -0.7603 5.3582 1.1650 -0.2868 2.5698 -0.0000 0.0000 0.0000 -5.0243 -4.2806 -9.4308 10.7429 -17.8931 -1.6961 -0.0000 0.0000 -6.4652 7.6752 -5.6067 -0.7543 -7.1250 0.0000 -0.0000 -14.0696 24.3236 7.2366 -0.0000 0.0000 0.0000 16.7806 -2.5704 -28.8213 -10.8146 18.0035 -1.7182 0.0000 0.0000 19.8091 -10.0080 -49.4923 7.6420 7.1250 -0.0000 -0.0000 56.0395 -73.5758 -40.9650
8.9100 17.9679 -32.2302 -83.7503 -89.0995 89.2172 0.0000 0.0000 0.0000 -6.5838 -6.4045 10.3764 0.0230 -0.9784 -2.6895 2.6639 -1.4784 -30.5206 3.0708 10.8089 31.6380 0.0000 0.0000 0.0000 14.8495 13.1984 12.8682 -0.0285 1.0900 -2.9966 -0.8453 -19.7290 -33.5361 -0.0472 -1.4015 3.8543 2.3156 0.6256 -7.6388 -0.7308 0.6041 -2.9413 -2.0028 0.2556 1.2761 -0.4885 -0.4202 -4.7673 3.6632 -0.7765 5.2940 1.2299 -0.2932 2.5257 -0.0000 0.0000 0.0000 -5.1029 -4.3405 -9.9474 10.7304 -17.8738 -1.6922 -0.0000 0.0000 -5.9878 7.4562 -5.6421 -0.7372 -7.1250 0.0000 -0.0000 -14.2255 24.2914 7.3327 -0.0000 0.0000 0.0000 16.8327 -2.5381 -28.9012 -10.8228 18.0161 -1.7207 0.0000 0.0000 19.8559 -9.9872 -49.6057 7.6386 7.1250 -0.0000 -0.0000 56.3976 -73.6233 -41.3146
8.9083 17.9683 -32.2303 -85.9568 -89.0539 91.4410 0.0000 0.0000 0.0000 -6.5506 -6.4610 10.4219 0.0236 -0.9916 -2.7257 2.6853 -1.5128 -30.6372 3.0977 10.8515 31.7808 0.0000 0.0000 0.0000 14.9102 13.2279 12.8645 -0.0286 1.0922 -3.0024 -0.8578 -19.6676 -33.5423 -0.0636 -1.6273 4.4767 2.2438 0.6150 -7.6631 -0.6526 0.5923 -2.9723 -1.8827 0.2493 1.2555 -0.4939 -0.4171 -4.6945 3.6707 -0.7725 5.2979 1.2332 -0.2919 2.5135 -0.0000 0.0000 0.0000 -5.2626 -4.3894 -10.4471 10.6639 -17.7713 -1.6719 -0.0000 0.0000 -5.3481 7.5581 -5.8092 -0.7694 -7.1250 0.0000 -0.0000 -14.1343 24.1268 7.3385 -0.0000 0.0000 0.0000 16.7777 -2.5043 -28.7958 -10.8557 18.0667 -1.7309 0.0000 0.0000 19.6729 -10.0627 -49.6892 7.7063 7.1250 -0.0000 -0.0000 56.5961 -73.6918 -41.5525
8.9070 17.9686 -32.2298 -87.1027 -89.0038 92.6005 0.0000 0.0000 0.0000 -6.4673 -6.3977 10.4082 0.0242 -1.0034 -2.7581 2.6806 -1.6254 -30.5798 3.1664 10.9597 32.1442 0.0000 0.0000 0.0000 14.9813 13.2787 12.8613 -0.0282 1.0838 -2.9793 -0.8584 -19.6708 -33.5490 -0.0696 -1.7021 4.6830 2.0644 0.6054 -7.6887 -0.4860 0.5877 -3.0051 -1.6103 0.2476 1.2325 -0.4824 -0.4094 -4.6320 3.5350 -0.7544 5.3282 1.1879 -0.2868 2.5100 0.0000 -0.0000 0.0000 -5.5225 -4.5005 -10.8195 10.5901 -17.6573 -1.6494 -0.0000 0.0000 -4.8511 7.6227 -5.8714 -0.7844 -7.1250 0.0000 -0.0000 -14.0812 24.0652 7.3300 0.0000 -0.0000 0.0000 16.5774 -2.5589 -28.5276 -10.8918 18.1223 -1.7421 0.0000 0.0000 19.3357 -10.1742 -49.6440 7.7874 7.1250 -0.0000 -0.0000 56.3760 -73.7114 -41.3875
8.9053 17.9700 -32.2293 -87.2922 -88.9889 92.8158 0.0000 0.0000 0.0000 -6.4106 -6.2913 10.3428 0.0243 -1.0066 -2.7671 2.6606 -1.6871 -30.4465 3.1869 10.9917 32.2519 0.0000 0.0000 0.0000 14.9470 13.1807 12.7834 -0.0282 1.0841 -2.9804 -0.8575 -19.6123 -33.4792 -0.0582 -1.5564 4.2813 1.9061 0.5836 -7.6895 -0.3802 0.5667 -3.0676 -1.4143 0.2363 1.1653 -0.3328 -0.3945 -4.5869 3.3007 -0.7318 5.3967 1.0871 -0.2790 2.5204 -0.0000 -0.0000 0.0000 -5.7023 -4.5402 -11.0743 10.5465 -17.5898 -1.6362 -0.0000 0.0000 -4.5234 7.5487 -5.8369 -0.7721 -7.1250 0.0000 -0.0000 -14.1384 24.0999 7.3499 -0.0000 -0.0000 0.0000 16.4745 -2.5340 -28.5659 -10.9042 18.1412 -1.7460 0.0000 0.0000 19.3313 -10.1428 -49.4896 7.7455 7.1250 -0.0000 -0.0000 55.9305 -73.6244 -40.9239
8.9029 17.9719 -32.2296 -88.6878 -89.0222 94.2374 0.0000 0.0000 0.0000 -6.4525 -6.2807 10.3379 0.0247 -1.0147 -2.7893 2.6537 -1.4393 -30.4706 3.0556 10.7845 31.5566 0.0000 0.0000 0.0000 14.8432 13.0479 12.7077 -0.0290 1.0998 -3.0234 -0.8129 -19.6321 -33.2359 -0.0379 -1.2568 3.4558 1.7811 0.5855 -7.6914 -0.3570 0.5761 -3.1257 -1.3196 0.2400 1.1055 -0.2648 -0.4237 -4.5273 3.2543 -0.7730 5.4074 1.0586 -0.3001 2.5128 0.0000 0.0000 0.0000 -5.7509 -4.5484 -10.9968 10.5262 -17.5583 -1.6301 -0.0000 0.0000 -4.6029 7.6300 -5.7505 -0.7690 -7.1250 0.0000 -0.0000 -14.0879 24.1834 7.2939 0.0000 0.0000 0.0000 16.5154 -2.5240 -28.8321 -10.9140 18.1563 -1.7490 0.0000 0.0000 19.5371 -10.0656 -49.3699 7.6724 7.1250 -0.0000 -0.0000 55.6287 -73.5366 -40.5812
8.9006 17.9730 -32.2293 -90.9069 -89.0154 96.4962 0.0000 0.0000 0.0000 -6.4139 -6.1942 10.3096 0.0258 -1.0366 -2.8495 2.6328 -1.2016 -30.4117 2.9451 10.6056 30.9610 0.0000 0.0000 0.0000 14.8480 13.1013 12.6910 -0.0294 1.1071 -3.0434 -0.7934 -19.6916 -33.1856 -0.0334 -1.1804 3.2453 1.7019 0.5897 -7.7183 -0.3058 0.5842 -3.1802 -1.2217 0.2431 1.0633 -0.4410 -0.4520 -4.4984 3.4512 -0.8131 5.4479 1.1518 -0.3182 2.5253 0.0000 -0.0000 0.0000 -5.8373 -4.4894 -10.7751 10.5324 -17.5680 -1.6320 -0.0000 0.0000 -4.8597 7.7388 -5.6911 -0.7721 -7.1250 0.0000 -0.0000 -14.0148 24.2403 7.2346 0.0000 -0.0000 0.0000 16.4675 -2.5228 -28.8822 -10.8997 18.1343 -1.7446 0.0000 0.0000 19.5739 -10.0381 -49.3166 7.6453 7.1250 -0.0000 -0.0000 55.4906 -73.5000 -40.4282
